<?xml version="1.0" encoding="utf-8"?>
<!-- Generator: Adobe Illustrator 19.2.1, SVG Export Plug-In . SVG Version: 6.00 Build 0)  -->
<svg version="1.1" id="Layer_1" xmlns="http://www.w3.org/2000/svg" xmlns:xlink="http://www.w3.org/1999/xlink" x="0px" y="0px"
	 viewBox="0 0 54.4 100" style="enable-background:new 0 0 54.4 100;" xml:space="preserve">
<style type="text/css">
	.st0{fill:#FFFFFF;}
</style>
<title>back</title>
<desc>Created with Sketch.</desc>
<g>
	<g>
		<path class="st0" d="M11.4,49c-1,1-1,1,0,2c1,1,41.7,41.6,41.7,41.6c1.7,1.7,1.7,4.4,0,6.1c-1.7,1.7-4.4,1.7-6.1,0L1.6,53.4
			C0.7,52.5,0,51.4,0,50c0-1.3,0.7-2.5,1.5-3.3L47,1.3c1.7-1.7,4.4-1.7,6.1,0c1.7,1.7,1.7,4.4,0,6.1C39.2,21.3,12.4,48,11.4,49z"/>
	</g>
</g>
</svg>
