<svg id="Layer_1" xmlns="http://www.w3.org/2000/svg" viewBox="0 0 39 27"><style>.st0{fill:#FFFFFF;}</style><title>Page 1</title><g id="Alpha"><g id="Project-Detail"><g id="Group"><g id="Page-1"><path id="Fill-1" class="st0" d="M27 10.8c-2.4 0-4.3 2-4.3 4.3 0 2.4 2 4.3 4.3 4.3 2.4 0 4.3-2 4.3-4.3.1-2.4-1.8-4.3-4.3-4.3zm0 8c-2 0-3.6-1.7-3.6-3.6 0-2 1.6-3.7 3.6-3.7s3.6 1.7 3.6 3.6c.1 1.9-1.5 3.7-3.6 3.7z"/><path id="Fill-2" class="st0" d="M11.7 10.8c-2.4 0-4.3 2-4.3 4.3 0 2.4 2 4.3 4.3 4.3 2.4 0 4.3-2 4.3-4.3 0-2.4-1.9-4.3-4.3-4.3zm0 8c-2 0-3.6-1.7-3.6-3.6 0-2 1.6-3.7 3.6-3.7s3.6 1.7 3.6 3.6c0 1.9-1.6 3.7-3.6 3.7z"/><path id="Fill-3" class="st0" d="M36 3.1v-.8c0-1.1-.9-2-2-2H5c-1.1 0-2 .9-2 2v.8C1.3 3.6.1 5 .1 6.8v15.8c0 2.1 1.7 3.8 3.8 3.8h9.4c1.3 0 2.4-.7 2.9-1.8v-.1l.1-.3h5.6l.1.3v.1c.5 1.2 1.6 2 2.9 2h9.7c2.1 0 3.8-1.7 3.8-3.8v-16c.2-1.8-.9-3.2-2.4-3.7zM4.5 2.3c0-.2.2-.4.4-.4h28.9c.2 0 .4.2.4.4v1.4H4.5V2.3zm11.6 20.1l1.4-3.5c.3-.7 1-1.1 1.7-1.1.6 0 1.5.3 1.8 1.2l1.2 3.4h-6.1zm20.9.2c0 1.3-1 2.2-2.2 2.2H25c-.6 0-1.2-.3-1.5-1l-1.8-5.1c-.4-1-1.3-1.6-2.4-1.6-1 0-2 .6-2.4 1.5l-2.1 5.2c-.3.6-.8.9-1.5.9H4c-1.3 0-2.2-1-2.2-2.2V6.8c0-1.3 1-2.2 2.2-2.2h30.7c1.3 0 2.2 1 2.2 2.2l.1 15.8z"/></g></g></g></g></svg>