<?xml version="1.0" encoding="utf-8"?>
<!-- Generator: Adobe Illustrator 21.0.0, SVG Export Plug-In . SVG Version: 6.00 Build 0)  -->
<svg version="1.1" id="Layer_1" xmlns="http://www.w3.org/2000/svg" xmlns:xlink="http://www.w3.org/1999/xlink" x="0px" y="0px"
	 viewBox="0 0 39 27" style="enable-background:new 0 0 39 27;" xml:space="preserve">
<style type="text/css">
	.st0{fill:#F229E8;}
</style>
<title>Page 1</title>
<g id="Alpha">
	<g id="Project-Detail">
		<g id="Group">
			<g id="Page-1">
				<path id="Fill-1" class="st0" d="M27,10.8c-2.4,0-4.3,2-4.3,4.3c0,2.4,2,4.3,4.3,4.3c2.4,0,4.3-2,4.3-4.3
					C31.4,12.7,29.5,10.8,27,10.8z M27,18.8c-2,0-3.6-1.7-3.6-3.6c0-2,1.6-3.7,3.6-3.7s3.6,1.7,3.6,3.6C30.7,17,29.1,18.8,27,18.8z"
					/>
				<path id="Fill-2" class="st0" d="M11.7,10.8c-2.4,0-4.3,2-4.3,4.3c0,2.4,2,4.3,4.3,4.3c2.4,0,4.3-2,4.3-4.3
					C16,12.7,14.1,10.8,11.7,10.8z M11.7,18.8c-2,0-3.6-1.7-3.6-3.6c0-2,1.6-3.7,3.6-3.7s3.6,1.7,3.6,3.6S13.7,18.8,11.7,18.8z"/>
				<path id="Fill-3" class="st0" d="M36,3.1V2.3c0-1.1-0.9-2-2-2H5c-1.1,0-2,0.9-2,2v0.8C1.3,3.6,0.1,5,0.1,6.8v15.8
					c0,2.1,1.7,3.8,3.8,3.8h9.4c1.3,0,2.4-0.7,2.9-1.8v-0.1l0.1-0.3h5.6l0.1,0.3v0.1c0.5,1.2,1.6,2,2.9,2h9.7c2.1,0,3.8-1.7,3.8-3.8
					v-16C38.6,5,37.5,3.6,36,3.1z M4.5,2.3c0-0.2,0.2-0.4,0.4-0.4h28.9c0.2,0,0.4,0.2,0.4,0.4v1.4H4.5V2.3z M16.1,22.4l1.4-3.5
					c0.3-0.7,1-1.1,1.7-1.1c0.6,0,1.5,0.3,1.8,1.2l1.2,3.4H16.1z M37,22.6c0,1.3-1,2.2-2.2,2.2H25c-0.6,0-1.2-0.3-1.5-1l-1.8-5.1
					c-0.4-1-1.3-1.6-2.4-1.6c-1,0-2,0.6-2.4,1.5l-2.1,5.2c-0.3,0.6-0.8,0.9-1.5,0.9H4c-1.3,0-2.2-1-2.2-2.2V6.8c0-1.3,1-2.2,2.2-2.2
					h30.7c1.3,0,2.2,1,2.2,2.2L37,22.6z"/>
			</g>
		</g>
	</g>
</g>
</svg>
