<?xml version="1.0" encoding="utf-8"?>
<!-- Generator: Adobe Illustrator 19.2.1, SVG Export Plug-In . SVG Version: 6.00 Build 0)  -->
<svg version="1.1" id="Layer_1" xmlns="http://www.w3.org/2000/svg" xmlns:xlink="http://www.w3.org/1999/xlink" x="0px" y="0px"
	 viewBox="0 0 65 78" style="enable-background:new 0 0 65 78;" xml:space="preserve">
<style type="text/css">
	.st0{fill:#B9B9C0;}
</style>
<g>
	<path class="st0" d="M65,9H45V3c0-1.7-1.3-3-3-3H23c-1.7,0-3,1.3-3,3v6H0v17h5v52h55V26h5V9z M24,3h17c0.6,0,1,0.4,1,1v5H23V4
		C23,3.4,23.4,3,24,3z M57,75H8V26h49V75z"/>
	<rect x="17" y="31" class="st0" width="3" height="39"/>
	<rect x="31" y="31" class="st0" width="3" height="39"/>
	<rect x="45" y="31" class="st0" width="3" height="39"/>
</g>
</svg>
