<svg id="Layer_1" data-name="Layer 1" xmlns="http://www.w3.org/2000/svg" viewBox="0 0 24 18"><defs><style>.cls-1{fill:#95959f;}</style></defs><title>icon-pano</title><g id="Layer_2" data-name="Layer 2"><path class="cls-1" d="M22.5,2V15.9A40.11,40.11,0,0,0,12,14.5,37,37,0,0,0,1.5,16V2.1A38.57,38.57,0,0,0,11.9,3.5,37.71,37.71,0,0,0,22.5,2M24,0A37.26,37.26,0,0,1,11.9,2,33.76,33.76,0,0,1,0,0V18a37.12,37.12,0,0,1,12-2,34.7,34.7,0,0,1,12,2V0Z"/><rect class="cls-1" x="5" y="2.2" width="1" height="13.8"/><rect class="cls-1" x="18" y="1.8" width="1" height="14.2"/></g></svg>