<?xml version="1.0" encoding="utf-8"?>
<!-- Generator: Adobe Illustrator 20.0.0, SVG Export Plug-In . SVG Version: 6.00 Build 0)  -->
<svg version="1.1" id="Layer_1" xmlns="http://www.w3.org/2000/svg" xmlns:xlink="http://www.w3.org/1999/xlink" x="0px" y="0px"
	 viewBox="0 0 18 20" style="enable-background:new 0 0 18 20;" xml:space="preserve">
<style type="text/css">
	.st0{fill:#56E0EA;}
</style>
<desc>Created with Sketch.</desc>
<path id="Page-1" class="st0" d="M14.9,6.6c1.7,0,3.1-1.4,3.1-3.1s-1.4-3.1-3.1-3.1s-3.1,1.4-3.1,3.1c0,0.3,0.1,0.6,0.1,0.9L5.6,8.1
	C5.1,7.4,4.2,6.9,3.1,6.9C1.4,6.9,0,8.3,0,10s1.4,3.1,3.1,3.1c1,0,2-0.5,2.5-1.3l6.2,3.7c-0.1,0.3-0.1,0.6-0.1,0.9
	c0,1.7,1.4,3.1,3.1,3.1s3.1-1.4,3.1-3.1s-1.4-3.1-3.1-3.1c-1,0-2,0.5-2.5,1.3l-6.2-3.8c0.1-0.3,0.1-0.6,0.1-0.9
	c0-0.3-0.1-0.6-0.1-0.9l6.2-3.7C12.9,6.1,13.8,6.6,14.9,6.6L14.9,6.6z M14.9,14.4c1.1,0,2.1,0.9,2.1,2.1c0,1.1-0.9,2.1-2.1,2.1
	s-2.1-0.9-2.1-2.1C12.8,15.4,13.7,14.4,14.9,14.4L14.9,14.4z M3.1,12.1C2,12.1,1,11.1,1,10s1-2.1,2.1-2.1s2.1,1,2.1,2.1
	S4.3,12.1,3.1,12.1L3.1,12.1z M14.9,1.4C16,1.4,17,2.3,17,3.5s-1,2.1-2.1,2.1s-2.1-0.9-2.1-2.1S13.7,1.4,14.9,1.4L14.9,1.4z"/>
</svg>
