<?xml version="1.0" encoding="utf-8"?>
<!-- Generator: Adobe Illustrator 20.0.0, SVG Export Plug-In . SVG Version: 6.00 Build 0)  -->
<svg version="1.1" id="Layer_1" xmlns="http://www.w3.org/2000/svg" xmlns:xlink="http://www.w3.org/1999/xlink" x="0px" y="0px"
	 viewBox="0 0 18 21" style="enable-background:new 0 0 18 21;" xml:space="preserve">
<style type="text/css">
	.st0{fill:#95959F;}
	.st1{fill:#B8BDCA;}
</style>
<desc>Created with Sketch.</desc>
<g id="Icon-_x2F_-Notifications" transform="translate(2420.000000, 1960.000000)">
	<g id="Group">
		<path id="Shape" class="st0" d="M-2403.3-1945.5c0,0-1.2-0.1-1.2-1.4v-3.9c0-3.6-2.9-6.5-6.4-6.5c-3.5,0-6.4,3-6.4,6.4h0v4
			c0,0,0,1.4-1.2,1.4h-1.3v2.6h18v-2.6H-2403.3L-2403.3-1945.5z"/>
		<ellipse id="Oval" class="st1" cx="-2411" cy="-1958.6" rx="1.3" ry="1.3"/>
	</g>
	<path id="Shape_1_" class="st1" d="M-2411-1939.2c1.4,0,2.6-1.2,2.6-2.6h-5.1C-2413.6-1940.4-2412.4-1939.2-2411-1939.2
		L-2411-1939.2z"/>
</g>
</svg>
