<?xml version="1.0" encoding="utf-8"?>
<!-- Generator: Adobe Illustrator 20.0.0, SVG Export Plug-In . SVG Version: 6.00 Build 0)  -->
<svg version="1.1" xmlns="http://www.w3.org/2000/svg" xmlns:xlink="http://www.w3.org/1999/xlink" x="0px" y="0px"
	 viewBox="0 0 20.6 35.9" style="enable-background:new 0 0 20.6 35.9;" xml:space="preserve">
<style type="text/css">
	.st0{fill:none;}
	.st1{enable-background:new    ;}
	.st2{fill:#FCFCFC;}
</style>
<g id="Layer_1">
	<desc>Created with Sketch.</desc>
</g>
<g id="Layer_2">
	<desc>Created with Sketch.</desc>
	<g>
		<g>
			<rect x="-913.9" y="-271.4" class="st0" width="1440" height="1024"/>
			<g>
				<g>
					<rect class="st0" width="22" height="36"/>
					<g class="st1">
						<path class="st2" d="M9.6,33.2c-0.7,0.1-1.3,0.5-1.9,0.5c-2.4,0.1-4.3,1.9-7.1,1.7c-0.2-0.5-0.1-0.5-0.4-1
							c0.5-0.7,0.7-1.4,1-2c-0.2-0.1-0.5-0.2-0.5-0.5c0.1,0,0.2-0.1,0.2-0.2c1.2-0.2,1.9-1.3,2.3-2.1c0.7-1.5,2.1-3.2,2.2-4.7
							c0.1-0.1,0.3,0.1,0.3-0.1c0-0.6,0.6-1.5,1.1-2.1c0-0.7,0.3-1.2,0.9-1.5c0,0.9-0.8,1.3-0.9,2.1c0.4-0.7,1.3-1.8,1.7-2.8
							c0.3-0.6,0.3-1.3,1-1.2c0,2.6-1.7,4.1-2.4,6.3c-0.5,0.6-1.1,1.2-1.4,2c-0.9,0.7-1.2,1.7-2,2.4c-0.2,0.7-0.4,1.1-0.6,1.6
							C5.3,31,7,29.9,8.8,28.9c1.7-1.4,2.9-3.1,4.4-4.6c2.7-3.6,4.2-7.9,5.6-12.2c0.7-3.2,1.5-6.9,0.1-10.3
							c-0.2-0.4-0.5-0.7-0.4-1.2c0.4-0.3,0.5,0,0.8,0c1.8,5.5,0.5,11.4-1.5,15.8c-0.8,3.1-2.8,6.5-5.2,9.2c-0.1,0.1-0.3,0.3-0.4,0.4
							c-0.4,0.9-1.9,2.3-2.6,2.7c-1.6,1.5-3.9,2.6-6.9,3.6C2.5,32.9,2,33.4,1.8,34c0.8-0.1,1.8-0.6,2.8-0.7c0.3-0.1,0.7,0,1,0
							c2.3-0.4,3.5-1,5.8-1.6c1.8-0.5,4.4-1,5.7-1.2c0.7-0.1,1.5-0.2,1.7,0.1c0.2,0.5-0.5,0.5-1.1,0.7c-1.2,0.3-3.6,1.3-5,1.2
							C11.7,32.9,10.6,32.9,9.6,33.2z M6,26.7c0.5-1.1,2.2-3.7,2.6-5.1c-1.6,1.8-3.1,4.3-4.1,6.7C5,28.1,5.3,27.1,6,26.7 M1.9,32.5
							C2,32.3,1.6,32.8,1.6,33C1.8,33.2,1.9,32.7,1.9,32.5 M15.3,31.3c-0.3-0.1-0.8,0-0.9,0.2c-3.7,0.3-7.1,1.8-13.2,3.2
							c1.1,0.4,2.4-0.4,3.8-0.8C8.6,32.8,12.3,32.6,15.3,31.3"/>
					</g>
				</g>
			</g>
		</g>
	</g>
</g>
</svg>
