
<svg width="36px" height="72px" viewBox="581 405 36 72" version="1.1" xmlns="http://www.w3.org/2000/svg" xmlns:xlink="http://www.w3.org/1999/xlink">
    <!-- Generator: Sketch 40.3 (33839) - http://www.bohemiancoding.com/sketch -->
    <desc>Created with Sketch.</desc>
    <defs></defs>
    <path d="M608.702866,405.858867 C606.009679,405.499776 599.239745,405.504 599.239745,405.504 L598.764476,405.504 C598.764476,405.504 591.990317,405.499776 589.300298,405.858867 C584.597254,406.497839 581,406.423908 581,415.513152 L581,469.244884 C581,473.799012 584.832776,476.790034 589.882238,476.790034 L598.764476,476.790034 L599.239745,476.790034 L608.121983,476.790034 C613.167221,476.790034 616.999996,473.799012 616.999996,469.244884 L616.999996,415.513152 C617.004221,406.423908 613.41436,406.502064 608.702866,405.858867 Z M595.414362,407.776839 L602.201195,407.776839 C602.440941,407.776839 602.638442,407.971171 602.638442,408.218311 C602.638442,408.453833 602.440941,408.655558 602.201195,408.655558 L595.414362,408.655558 C595.171447,408.655558 594.972891,408.453833 594.972891,408.218311 C594.972891,407.971171 595.171447,407.776839 595.414362,407.776839 Z M603.034499,473.762046 C603.034499,474.129587 602.733495,474.43904 602.362786,474.43904 L595.654109,474.43904 C595.27495,474.43904 594.972891,474.129587 594.972891,473.762046 L594.972891,472.796723 C594.972891,472.429182 595.279175,472.11973 595.654109,472.11973 L602.362786,472.11973 C602.733495,472.11973 603.034499,472.424958 603.034499,472.796723 L603.034499,473.762046 Z M614.214924,467.293115 L583.479845,467.293115 L583.479845,413.490621 L614.214924,413.490621 L614.214924,467.293115 Z" id="Page-1" stroke="none" fill="#56E0EA" fill-rule="evenodd"></path>
</svg>
