
<svg width="60px" height="73px" viewBox="878 405 60 73" version="1.1" xmlns="http://www.w3.org/2000/svg" xmlns:xlink="http://www.w3.org/1999/xlink">
    <!-- Generator: Sketch 40.3 (33839) - http://www.bohemiancoding.com/sketch -->
    <desc>Created with Sketch.</desc>
    <defs></defs>
    <g id="MP4" stroke="none" stroke-width="1" fill="none" fill-rule="evenodd" transform="translate(878.000000, 405.000000)">
        <path d="M20.4621359,50.5116505 C20.3135922,50.8912621 20.1398058,51.4029126 19.9349515,52.0553398 L19.6883495,52.8252427 L19.4533981,53.5951456 L19.3805825,53.5951456 L19.1271845,52.8252427 L18.8805825,52.0436893 C18.6563107,51.368932 18.4747573,50.8572816 18.3378641,50.4932039 L16.3359223,45.3087379 L12.868932,45.3087379 L12.868932,56.507767 L14.9932039,56.507767 L14.9932039,50.4019417 C14.9932039,49.9466019 14.9776699,49.4048544 14.9436893,48.7669903 L14.9019417,47.9485437 L14.8601942,47.1368932 L14.9252427,47.1368932 L15.1786408,47.9067961 L15.4330097,48.6873786 C15.6572816,49.3776699 15.838835,49.8941748 15.9757282,50.238835 L18.4631068,56.507767 L20.4009709,56.507767 L22.8621359,50.1893204 C22.9873786,49.8563107 23.1660194,49.3398058 23.3932039,48.638835 L23.6398058,47.8572816 L23.8941748,47.0757282 L23.9582524,47.0757282 L23.9165049,47.9029126 L23.8747573,48.7407767 C23.8485437,49.3592233 23.8330097,49.9126214 23.8330097,50.3980583 L23.8330097,56.5038835 L25.9572816,56.5038835 L25.9572816,45.3048544 L22.4223301,45.3048544 L20.4621359,50.5116505 Z" id="Shape" fill="#53A0FD"></path>
        <path d="M33.007767,45.3126214 L27.9368932,45.3126214 L27.9368932,56.5116505 L30.0601942,56.5116505 L30.0601942,52.8932039 L32.5640777,52.8932039 L33.0563107,52.8864078 C34.5893204,52.8864078 35.6087379,52.6398058 36.1097087,52.1504854 C36.6135922,51.6572816 36.8640777,50.6640777 36.8640777,49.1621359 C36.8640777,47.6524272 36.5990291,46.6320388 36.0718447,46.1048544 C35.5446602,45.5737864 34.5203883,45.3126214 33.007767,45.3126214 L33.007767,45.3126214 Z M34.315534,50.7699029 C34.0582524,50.9932039 33.4436893,51.1038835 32.4805825,51.1038835 L30.0601942,51.1038835 L30.0601942,47.0990291 L32.6961165,47.0990291 C33.6029126,47.0990291 34.1679612,47.2126214 34.384466,47.4359223 C34.6,47.6601942 34.7106796,48.2475728 34.7106796,49.1961165 C34.7067961,50.0262136 34.5737864,50.5495146 34.315534,50.7699029 L34.315534,50.7699029 Z" id="Shape" fill="#53A0FD"></path>
        <path d="M45.8446602,52.468932 L45.8446602,45.3126214 L42.561165,45.3126214 L37.6718447,51.7184466 L37.6718447,54.1067961 L43.7174757,54.1067961 L43.7174757,56.5116505 L45.8446602,56.5116505 L45.8446602,54.1067961 L47.131068,54.1067961 L47.131068,52.4650485 L45.8446602,52.4650485 L45.8446602,52.468932 Z M43.7174757,52.468932 L39.4087379,52.468932 L43.6524272,46.9165049 L43.7174757,46.9165049 L43.7174757,52.468932 Z" id="Shape" fill="#53A0FD"></path>
        <path d="M59.7708738,66.015534 L59.7708738,0 L7.03300971,0 C3.29320388,0 0.229126214,3.06019417 0.229126214,6.8 L0.229126214,72.815534 L52.9669903,72.815534 C56.7067961,72.815534 59.7708738,69.7553398 59.7708738,66.015534 L59.7708738,66.015534 Z M1.36699029,39.0970874 L58.6291262,39.0970874 L58.6291262,62.7650485 L1.36699029,62.7650485 L1.36699029,39.0970874 Z M58.6330097,37.9592233 L1.36699029,37.9592233 L1.36699029,22.515534 L22.7446602,1.13786408 L58.6330097,1.13786408 L58.6330097,37.9592233 Z M7.03300971,1.13786408 L21.1368932,1.13786408 L1.36699029,20.907767 L1.36699029,6.8 C1.36699029,3.67864078 3.90776699,1.13786408 7.03300971,1.13786408 L7.03300971,1.13786408 Z M1.36699029,63.9029126 L58.6291262,63.9029126 L58.6291262,66.015534 C58.6291262,69.1407767 56.0883495,71.6776699 52.9669903,71.6776699 L1.36699029,71.6776699 L1.36699029,63.9029126 Z" id="Shape" fill="#53A0FD"></path>
    </g>
</svg>
