<?xml version="1.0" encoding="utf-8"?>
<!-- Generator: Adobe Illustrator 21.0.0, SVG Export Plug-In . SVG Version: 6.00 Build 0)  -->
<svg version="1.1" id="Layer_1" xmlns="http://www.w3.org/2000/svg" xmlns:xlink="http://www.w3.org/1999/xlink" x="0px" y="0px"
	 viewBox="0 0 24 18" style="enable-background:new 0 0 24 18;" xml:space="preserve">
<style type="text/css">
	.st0{display:none;}
	.st1{display:inline;}
	.st2{fill:#95959F;}
	.st3{fill:none;stroke:#95959F;stroke-width:2;stroke-linecap:square;}
	.st4{fill:#FFFFFF;}
	.st5{fill:none;stroke:#FFFFFF;}
</style>
<g id="Layer_1_1_" class="st0">
	<desc>Created with Sketch.</desc>
	<g id="Group-7" transform="translate(78.000000, 1.000000)" class="st1">
		<g id="Path-3">
			<g id="path-1_1_">
				<path class="st2" d="M-56.2,2v12.1c-2.2-0.6-5.6-1.2-9.7-1.2s-7.5,0.6-9.7,1.2V2c2.2,0.6,5.6,1.2,9.7,1.2S-58.4,2.6-56.2,2
					 M-54.2-0.7c0,0-4.8,1.9-11.7,1.9s-11.7-1.9-11.7-1.9v17.5c0,0,4.8-1.9,11.7-1.9c6.9,0,11.7,1.9,11.7,1.9V-0.7L-54.2-0.7z"/>
			</g>
		</g>
		<path id="Line" class="st3" d="M-59.5,2.7v10.7"/>
		<path id="Line_1_" class="st3" d="M-72.2,2.7v10.7"/>
	</g>
</g>
<g id="Layer_2">
	<g>
		<path class="st4" d="M22.5,2v13.9c-2.2-0.6-5.9-1.4-10.5-1.4C8.4,14.5,4.9,15,1.5,16V2.1c2.1,0.6,5.8,1.4,10.4,1.4
			C15.5,3.5,19.1,3,22.5,2 M24,0c-4.4,1.5-8.5,2-12.1,2C4.8,2,0,0,0,0v18c4.4-1.5,8.5-2,12-2c7.1,0,12,2,12,2V0L24,0z"/>
	</g>
	<line class="st5" x1="5.5" y1="2.2" x2="5.5" y2="16"/>
	<line class="st5" x1="18.5" y1="1.8" x2="18.5" y2="16"/>
</g>
</svg>
