
<svg width="60px" height="73px" viewBox="503 405 60 73" version="1.1" xmlns="http://www.w3.org/2000/svg" xmlns:xlink="http://www.w3.org/1999/xlink">
    <!-- Generator: Sketch 40.3 (33839) - http://www.bohemiancoding.com/sketch -->
    <desc>Created with Sketch.</desc>
    <defs></defs>
    <g id="JPG" stroke="none" stroke-width="1" fill="none" fill-rule="evenodd" transform="translate(503.000000, 405.000000)">
        <path d="M20.731068,52.7757282 C20.731068,53.6291262 20.6436893,54.1796117 20.4660194,54.4223301 C20.2873786,54.6650485 19.8893204,54.7902913 19.2631068,54.7902913 C18.2203883,54.7902913 17.6786408,54.4524272 17.6475728,53.7737864 C17.6291262,53.4932039 17.6213592,53.2543689 17.6213592,53.0601942 C17.6213592,52.8524272 17.6019417,52.5407767 17.5718447,52.1242718 L15.5427184,52.1242718 L15.5203883,52.9504854 C15.5203883,54.4825243 15.7514563,55.476699 16.2145631,55.931068 C16.676699,56.3864078 17.6854369,56.6106796 19.2368932,56.6106796 C20.6970874,56.6106796 21.6640777,56.3747573 22.1417476,55.9048544 C22.6165049,55.4349515 22.8553398,54.4786408 22.8553398,53.0417476 L22.8553398,45.3126214 L20.731068,45.3126214 L20.731068,52.7757282 Z" id="Shape" fill="#FF9F00"></path>
        <path d="M29.8980583,45.3126214 L24.8271845,45.3126214 L24.8271845,56.5116505 L26.9504854,56.5116505 L26.9504854,52.8932039 L29.4572816,52.8932039 L29.9504854,52.8864078 C31.4825243,52.8864078 32.4990291,52.6398058 33.0038835,52.1504854 C33.507767,51.6572816 33.7582524,50.6640777 33.7582524,49.1621359 C33.7582524,47.6524272 33.4970874,46.6320388 32.9660194,46.1048544 C32.4349515,45.5737864 31.4145631,45.3126214 29.8980583,45.3126214 L29.8980583,45.3126214 Z M31.2058252,50.7699029 C30.9485437,50.9932039 30.3339806,51.1038835 29.3708738,51.1038835 L26.9504854,51.1038835 L26.9504854,47.0990291 L29.5864078,47.0990291 C30.4932039,47.0990291 31.0582524,47.2126214 31.2708738,47.4359223 C31.4902913,47.6640777 31.5970874,48.2475728 31.5970874,49.1961165 C31.5970874,50.0262136 31.4679612,50.5495146 31.2058252,50.7699029 L31.2058252,50.7699029 Z" id="Shape" fill="#FF9F00"></path>
        <path d="M44.4456311,50.5533981 L39.515534,50.5533981 L39.515534,52.1203883 L42.3291262,52.1203883 L42.3213592,52.5786408 C42.3213592,53.538835 42.1660194,54.1456311 41.8514563,54.4029126 C41.5368932,54.661165 40.8009709,54.7902913 39.6407767,54.7902913 C38.4495146,54.7902913 37.6873786,54.6378641 37.3572816,54.3349515 C37.0271845,54.031068 36.8640777,53.3262136 36.8640777,52.2106796 L36.8456311,50.7737864 L36.8533981,49.6514563 C36.8533981,48.5174757 37.0165049,47.8 37.3495146,47.4932039 C37.6834951,47.1864078 38.461165,47.0339806 39.6932039,47.0339806 C40.823301,47.0339806 41.5330097,47.1213592 41.8174757,47.3 C42.0980583,47.4776699 42.2572816,47.9330097 42.2990291,48.668932 L44.4456311,48.668932 C44.4456311,47.2126214 44.1572816,46.2718447 43.576699,45.8514563 C42.9932039,45.4262136 41.7106796,45.2174757 39.7203883,45.2174757 C38.1990291,45.2174757 37.1184466,45.3582524 36.4854369,45.631068 C35.8514563,45.9038835 35.3776699,46.4349515 35.0669903,47.2203883 C34.8165049,47.8650485 34.6873786,49.4126214 34.6873786,51.8660194 C34.6873786,53.784466 35.0019417,55.0592233 35.6320388,55.6815534 C36.261165,56.3029126 37.5436893,56.6174757 39.4815534,56.6174757 C41.5932039,56.6174757 42.9553398,56.3825243 43.5621359,55.9165049 C44.1728155,55.4456311 44.4757282,54.4067961 44.4757282,52.7834951 L44.4456311,50.5533981 Z" id="Shape" fill="#FF9F00"></path>
        <path d="M59.7708738,0 L7.03300971,0 C3.29320388,0 0.229126214,3.06019417 0.229126214,6.8 L0.229126214,72.815534 L52.9669903,72.815534 C56.7067961,72.815534 59.7708738,69.7553398 59.7708738,66.015534 L59.7708738,0 Z M1.36699029,39.0970874 L58.6291262,39.0970874 L58.6291262,62.7650485 L1.36699029,62.7650485 L1.36699029,39.0970874 Z M58.6330097,37.9592233 L1.36699029,37.9592233 L1.36699029,22.515534 L22.7446602,1.13786408 L58.6291262,1.13786408 L58.6291262,37.9592233 L58.6330097,37.9592233 Z M7.03300971,1.13786408 L21.1368932,1.13786408 L1.36699029,20.907767 L1.36699029,6.8 C1.36699029,3.67864078 3.90776699,1.13786408 7.03300971,1.13786408 L7.03300971,1.13786408 Z M1.36699029,63.9029126 L58.6291262,63.9029126 L58.6291262,66.015534 C58.6291262,69.1407767 56.0883495,71.6776699 52.9669903,71.6776699 L1.36699029,71.6776699 L1.36699029,63.9029126 Z" id="Shape" fill="#FF9F00"></path>
    </g>
</svg>
