<svg id="Layer_1" data-name="Layer 1" xmlns="http://www.w3.org/2000/svg" viewBox="0 0 19 19"><defs><style>.cls-1{fill:#95959f;}</style></defs><title>icon-sphere</title><g id="Page-1"><path class="cls-1" d="M10,1a9,9,0,1,0,9,9A9,9,0,0,0,10,1Zm8.25,9c0,1.42-3.39,3-8.25,3a20.26,20.26,0,0,1-2.81-.19A20.26,20.26,0,0,1,7,10c0-4.86,1.58-8.25,3-8.25A8.26,8.26,0,0,1,18.25,10ZM8.33,1.92C7.09,3.37,6.25,6.4,6.25,10a21.59,21.59,0,0,0,.16,2.68C3.56,12.15,1.75,11,1.75,10A8.26,8.26,0,0,1,8.33,1.92ZM1.92,11.67a9.83,9.83,0,0,0,4.61,1.8,9.84,9.84,0,0,0,1.8,4.61A8.28,8.28,0,0,1,1.92,11.67ZM10,18.25c-1,0-2.15-1.81-2.68-4.66a21.59,21.59,0,0,0,2.68.16c3.6,0,6.63-.84,8.08-2.08A8.26,8.26,0,0,1,10,18.25Z" transform="translate(-0.5 -0.5)"/><path class="cls-1" d="M10,19.5A9.5,9.5,0,1,1,19.5,10,9.51,9.51,0,0,1,10,19.5ZM7.95,14.16c.57,2.47,1.52,3.59,2.05,3.59a7.78,7.78,0,0,0,7.22-4.92A16.6,16.6,0,0,1,10,14.25C9.3,14.25,8.61,14.22,7.95,14.16ZM2.78,12.83a7.75,7.75,0,0,0,4.39,4.39A12.49,12.49,0,0,1,6.1,13.9,12.46,12.46,0,0,1,2.78,12.83Zm4.85-.46A19.93,19.93,0,0,0,10,12.5c5,0,7.75-1.65,7.75-2.5A7.76,7.76,0,0,0,10,2.25C9.15,2.25,7.5,5,7.5,10A20,20,0,0,0,7.64,12.36ZM7.17,2.78A7.79,7.79,0,0,0,2.25,10c0,.54,1.12,1.48,3.59,2.05-.06-.67-.09-1.36-.09-2.05A16.6,16.6,0,0,1,7.17,2.78Z" transform="translate(-0.5 -0.5)"/></g></svg>