
<svg width="60px" height="73px" viewBox="753 405 60 73" version="1.1" xmlns="http://www.w3.org/2000/svg" xmlns:xlink="http://www.w3.org/1999/xlink">
    <!-- Generator: Sketch 40.3 (33839) - http://www.bohemiancoding.com/sketch -->
    <desc>Created with Sketch.</desc>
    <defs></defs>
    <g id="Group" stroke="none" stroke-width="1" fill="none" fill-rule="evenodd" transform="translate(753.000000, 405.000000)">
        <path d="M23.4203883,50.5533981 L23.4203883,52.1203883 L26.2339806,52.1203883 L26.2262136,52.5786408 C26.2262136,53.538835 26.0708738,54.1456311 25.7524272,54.4029126 C25.4378641,54.661165 24.7019417,54.7902913 23.5417476,54.7902913 C22.3504854,54.7902913 21.5883495,54.6378641 21.2621359,54.3349515 C20.9320388,54.031068 20.768932,53.3262136 20.768932,52.2106796 L20.7543689,50.7737864 L20.761165,49.6514563 C20.761165,48.5174757 20.9281553,47.8 21.2582524,47.4932039 C21.592233,47.1864078 22.3699029,47.0339806 23.5980583,47.0339806 C24.7320388,47.0339806 25.4378641,47.1213592 25.7223301,47.3 C26.0029126,47.4776699 26.1621359,47.9330097 26.2038835,48.668932 L28.3504854,48.668932 C28.3504854,47.2126214 28.0621359,46.2718447 27.4815534,45.8514563 C26.9019417,45.4262136 25.615534,45.2174757 23.6252427,45.2174757 C22.1038835,45.2174757 21.0271845,45.3582524 20.3902913,45.631068 C19.7563107,45.9038835 19.2825243,46.4349515 18.9718447,47.2203883 C18.7213592,47.8650485 18.5961165,49.4126214 18.5961165,51.8660194 C18.5961165,53.784466 18.9106796,55.0592233 19.5368932,55.6815534 C20.1660194,56.3029126 21.4514563,56.6174757 23.3864078,56.6174757 C25.4980583,56.6174757 26.8601942,56.3825243 27.4669903,55.9165049 C28.0776699,55.4456311 28.3805825,54.4067961 28.3805825,52.7834951 L28.3466019,50.5572816 L23.4203883,50.5572816 L23.4203883,50.5533981 Z" id="Shape" fill="#F229E8"></path>
        <polygon id="Shape" fill="#F229E8" points="29.8786408 56.5116505 32.0029126 56.5116505 32.0029126 45.3126214 29.8786408 45.3126214"></polygon>
        <polygon id="Shape" fill="#F229E8" points="41.4038835 47.1029126 41.4038835 45.3126214 33.9854369 45.3126214 33.9854369 56.515534 36.1135922 56.515534 36.1135922 51.907767 41.1349515 51.907767 41.1349515 50.1213592 36.1135922 50.1213592 36.1135922 47.1029126"></polygon>
        <path d="M59.7708738,66.015534 L59.7708738,0 L7.03300971,0 C3.29320388,0 0.229126214,3.06019417 0.229126214,6.8 L0.229126214,72.815534 L52.9669903,72.815534 C56.7067961,72.815534 59.7708738,69.7553398 59.7708738,66.015534 L59.7708738,66.015534 Z M1.36699029,39.0970874 L58.6291262,39.0970874 L58.6291262,62.7621359 L1.36699029,62.7621359 L1.36699029,39.0970874 Z M58.6330097,37.9592233 L1.36699029,37.9592233 L1.36699029,22.515534 L22.7446602,1.13786408 L58.6291262,1.13786408 L58.6291262,37.9592233 L58.6330097,37.9592233 Z M7.03300971,1.13786408 L21.1368932,1.13786408 L1.36699029,20.907767 L1.36699029,6.8 C1.36699029,3.67864078 3.90776699,1.13786408 7.03300971,1.13786408 L7.03300971,1.13786408 Z M1.36699029,63.9029126 L58.6291262,63.9029126 L58.6291262,66.015534 C58.6291262,69.1407767 56.0883495,71.6776699 52.9669903,71.6776699 L1.36699029,71.6776699 L1.36699029,63.9029126 Z" id="Shape" fill="#F229E8"></path>
    </g>
</svg>
