<?xml version="1.0" encoding="utf-8"?>
<!-- Generator: Adobe Illustrator 20.0.0, SVG Export Plug-In . SVG Version: 6.00 Build 0)  -->
<svg version="1.1" id="Layer_1" xmlns="http://www.w3.org/2000/svg" xmlns:xlink="http://www.w3.org/1999/xlink" x="0px" y="0px"
	 viewBox="0 0 65 78" style="enable-background:new 0 0 65 78;" xml:space="preserve">
<style type="text/css">
	.st0{fill:#BABABA;}
</style>
<g>
	<path class="st0" d="M8.2,53.7c0.7,0.7,1.3,1.3,2,2C22.6,43.2,35,30.8,47.4,18.4c3.5,3.5,6.8,6.8,10,10c-13,13-26.1,26.1-39.1,39.1
		C13.7,63,9.1,58.3,4.4,53.7c13-13,26.1-26.1,39.2-39.2c0.5,0.6,1.2,1.3,1.8,1.9C33.1,28.8,20.7,41.2,8.2,53.7z"/>
	<path class="st0" d="M45.6,12.4c1.3-1.3,2.5-2.7,4-4c2.1-1.9,5.3-1.7,7.3,0.3c2.2,2.2,4.4,4.4,6.5,6.5c2,2,2.2,5.2,0.3,7.3
		c-1.3,1.4-2.7,2.7-4,3.9C55,21.8,50.3,17.1,45.6,12.4z"/>
	<path class="st0" d="M2.5,55.7c4.6,4.6,9.2,9.2,13.8,13.8C11,70.4,5.6,71.2,0,72.1C0.8,66.6,1.6,61.1,2.5,55.7z"/>
</g>
</svg>
