
<svg width="36px" height="36px" viewBox="102 129 36 36" version="1.1" xmlns="http://www.w3.org/2000/svg" xmlns:xlink="http://www.w3.org/1999/xlink">
    <!-- Generator: Sketch 40.3 (33839) - http://www.bohemiancoding.com/sketch -->
    <desc>Created with Sketch.</desc>
    <defs></defs>
    <path d="M120.113684,129 C120.079272,129 120.04404,129 120.027653,129.016613 C119.925236,129.032395 119.839206,129.088048 119.787588,129.139548 L111.181279,137.893678 C110.9576,138.049838 110.941213,138.416151 111.13048,138.611352 C111.318927,138.821504 111.681074,138.8024 111.853135,138.575635 L119.634372,130.713613 C119.634372,130.904661 119.649939,131.151361 119.649939,131.482787 C119.649939,132.215413 119.649939,133.2479 119.666326,134.487217 C119.666326,136.950069 119.649939,140.181264 119.649939,143.432395 C119.634372,149.931334 119.634372,156.378772 119.634372,156.378772 C119.634372,156.642086 119.858051,156.885464 120.116961,156.885464 C120.376691,156.885464 120.600369,156.642086 120.600369,156.378772 C120.600369,156.378772 120.616756,149.931334 120.616756,143.432395 C120.616756,140.181264 120.632324,136.933456 120.632324,134.470605 C120.632324,133.231287 120.616756,132.218736 120.616756,131.482787 C120.616756,131.132257 120.600369,130.888879 120.600369,130.677896 L128.397174,138.575635 C128.570054,138.8024 128.912537,138.819012 129.120648,138.611352 C129.309095,138.419474 129.293528,138.053161 129.06903,137.893678 L120.462721,129.139548 C120.370136,129.05233 120.251332,129 120.113684,129 Z M105.427126,149.275958 C103.529913,149.275958 102,150.969635 102,153.049562 L102,161.226396 C102,163.306322 103.529913,165 105.427126,165 L134.55542,165 C136.452633,165 138,163.306322 138,161.226396 L138,153.049562 C138,150.969635 136.452633,149.275958 134.55542,149.275958 L128.768919,149.275958 C128.528353,149.275958 128.321177,149.519335 128.321177,149.781818 C128.321177,150.045132 128.528353,150.271897 128.768919,150.271897 L134.55542,150.271897 C135.957081,150.271897 137.090097,151.495431 137.090097,153.049562 L137.090097,161.226396 C137.090097,162.780526 135.957081,164.019843 134.55542,164.019843 L105.427126,164.019843 C104.024706,164.019843 102.892449,162.780526 102.892449,161.226396 L102.892449,153.049562 C102.892449,151.495431 104.024706,150.271897 105.427126,150.271897 L111.213626,150.271897 C111.453434,150.271897 111.661369,150.045132 111.661369,149.781818 C111.661369,149.519335 111.453434,149.275958 111.213626,149.275958 L105.427126,149.275958 Z" id="Page-1" stroke="none" fill="#FFFFFF" fill-rule="evenodd"></path>
</svg>
