
<svg width="74px" height="45px" viewBox="823 418 74 45" version="1.1" xmlns="http://www.w3.org/2000/svg" xmlns:xlink="http://www.w3.org/1999/xlink">
    <!-- Generator: Sketch 40.3 (33839) - http://www.bohemiancoding.com/sketch -->
    <desc>Created with Sketch.</desc>
    <defs></defs>
    <g id="Page-1" stroke="none" stroke-width="1" fill="none" fill-rule="evenodd" transform="translate(823.000000, 418.000000)">
        <path d="M72.723,17.914 L67.984,17.914 C69.031,22.109 69.418,26.684 70.059,30.738 L72.625,30.738 C72.633,30.738 72.637,30.734 72.641,30.734 C72.684,30.73 72.723,30.723 72.766,30.715 C72.805,30.707 72.848,30.703 72.883,30.688 C73.102,30.609 73.285,30.453 73.285,30.238 L73.285,18.324 C73.285,18.008 72.996,17.914 72.723,17.914 Z" id="Fill-1" fill="#53A0FD"></path>
        <path d="M0.715,18.41 L0.715,30.324 C0.715,30.641 1.004,30.738 1.277,30.738 L4.043,30.738 C4.664,26.473 5.262,22.094 6.344,17.914 L1.371,17.914 C1.129,17.914 0.715,18.117 0.715,18.41 Z" id="Fill-2" fill="#53A0FD"></path>
        <path d="M43.781,5.926 L43.781,5.68 L43.781,0.891 C43.781,0.57 43.492,0.477 43.219,0.477 L31.305,0.477 C31.059,0.477 30.645,0.684 30.645,0.973 L30.645,6.004 C35.012,5.656 39.426,5.617 43.781,5.926 Z" id="Fill-3" fill="#53A0FD"></path>
        <path d="M61.363,12.824 C52.957,8.258 41.691,7.926 32.395,8.391 C27.332,8.645 22.164,9.086 17.285,10.555 C17.188,10.582 17.086,10.613 16.98,10.645 C14.078,11.691 11.504,13.242 10.086,15.629 C9.949,15.859 9.832,16.102 9.719,16.355 C9.156,18.055 8.754,19.875 8.441,21.727 C8.398,21.992 8.355,22.25 8.309,22.504 C7.871,25.289 7.594,28.113 7.191,30.664 C6.918,32.422 6.305,34.438 6.855,36.199 C8.406,41.168 13.012,44.262 18.078,44.738 C19.945,44.785 23.02,43.207 25.023,42.789 C27.645,42.246 30.344,41.887 33.02,41.758 C37.504,41.539 42.016,41.633 46.465,42.277 C50.566,42.871 54.688,44.711 58.555,44.438 C58.676,44.395 58.797,44.352 58.918,44.309 C61.754,43.246 64.43,41.371 66.051,38.949 C66.789,37.844 67.246,36.684 67.52,35.492 C67.75,32.605 66.918,29.473 66.324,26.137 C65.578,21.906 65.637,15.145 61.363,12.824 Z M59.777,40.133 C55.453,43.656 50.441,40.715 45.461,39.973 C41.352,39.359 37.176,39.301 33.039,39.543 C30.793,39.672 28.578,40.066 26.371,40.469 C24.77,40.762 22.359,42.098 20.91,42.062 C16.707,41.645 12.988,39.164 11.551,35.109 C10.969,33.461 11.562,31.531 11.824,29.879 C12.52,25.449 12.82,20.191 14.652,16.059 C15.387,14.398 18.539,13.648 20.035,13.188 C24.047,11.953 28.297,11.578 32.465,11.336 C40.547,10.863 50.418,11.121 57.734,15.094 C61.238,16.996 61.199,22.578 61.82,26.047 C62.754,31.27 64.605,36.203 59.777,40.133 Z" id="Fill-4" fill="#53A0FD"></path>
    </g>
</svg>
