
<svg width="60px" height="73px" viewBox="628 405 60 73" version="1.1" xmlns="http://www.w3.org/2000/svg" xmlns:xlink="http://www.w3.org/1999/xlink">
    <!-- Generator: Sketch 40.3 (33839) - http://www.bohemiancoding.com/sketch -->
    <desc>Created with Sketch.</desc>
    <defs></defs>
    <g id="PNG" stroke="none" stroke-width="1" fill="none" fill-rule="evenodd" transform="translate(628.000000, 405.000000)">
        <path d="M19.0621359,45.3126214 L13.9883495,45.3126214 L13.9883495,56.5116505 L16.1116505,56.5116505 L16.1116505,52.8932039 L18.6184466,52.8932039 L19.1116505,52.8864078 C20.6436893,52.8864078 21.6601942,52.6398058 22.1650485,52.1504854 C22.668932,51.6572816 22.9194175,50.6640777 22.9194175,49.1621359 C22.9194175,47.6524272 22.6582524,46.6320388 22.1271845,46.1048544 C21.6,45.5737864 20.5757282,45.3126214 19.0621359,45.3126214 L19.0621359,45.3126214 Z M20.3708738,50.7737864 C20.1126214,50.9970874 19.4990291,51.107767 18.5349515,51.107767 L16.115534,51.107767 L16.115534,47.1029126 L18.7514563,47.1029126 C19.6582524,47.1029126 20.223301,47.2165049 20.4349515,47.4398058 C20.6553398,47.6679612 20.761165,48.2514563 20.761165,49.2 C20.7572816,50.0262136 20.6291262,50.5495146 20.3708738,50.7737864 L20.3708738,50.7737864 Z" id="Shape" fill="#56E0EA"></path>
        <path d="M32.5446602,51.7592233 L32.5601942,53.2048544 L32.6126214,54.6456311 L32.5368932,54.6456311 L32.1087379,53.7281553 L31.6796117,52.8174757 C31.3427184,52.1048544 31.0466019,51.4902913 30.7854369,50.9902913 L27.8728155,45.3126214 L24.2699029,45.3126214 L24.2699029,56.5116505 L26.3932039,56.5116505 L26.3932039,50.0873786 L26.3786408,48.615534 L26.3514563,47.8834951 L26.3174757,47.1475728 L26.4009709,47.1475728 L26.7533981,47.9524272 L27.1135922,48.7563107 C27.4514563,49.5223301 27.7019417,50.0572816 27.861165,50.3640777 L31.0621359,56.5116505 L34.6650485,56.5116505 L34.6650485,45.3126214 L32.5407767,45.3126214 L32.5407767,51.7592233 L32.5446602,51.7592233 Z" id="Shape" fill="#56E0EA"></path>
        <path d="M45.9737864,50.5533981 L41.0436893,50.5533981 L41.0436893,52.1203883 L43.8572816,52.1203883 L43.8504854,52.5786408 C43.8504854,53.538835 43.6941748,54.1456311 43.3796117,54.4029126 C43.0650485,54.661165 42.3252427,54.7902913 41.1650485,54.7902913 C39.9737864,54.7902913 39.215534,54.6378641 38.8854369,54.3349515 C38.5553398,54.031068 38.3932039,53.3262136 38.3932039,52.2106796 L38.3776699,50.7737864 L38.3854369,49.6514563 C38.3854369,48.5174757 38.5485437,47.8 38.8786408,47.4932039 C39.2116505,47.1864078 39.9893204,47.0339806 41.2184466,47.0339806 C42.3524272,47.0339806 43.0572816,47.1213592 43.3417476,47.3 C43.6223301,47.4776699 43.7815534,47.9330097 43.823301,48.668932 L45.9699029,48.668932 C45.9699029,47.2126214 45.6815534,46.2718447 45.1019417,45.8514563 C44.5174757,45.4262136 43.2359223,45.2174757 41.2446602,45.2174757 C39.7242718,45.2174757 38.6427184,45.3582524 38.0097087,45.631068 C37.376699,45.9038835 36.9019417,46.4349515 36.5912621,47.2203883 C36.3407767,47.8650485 36.2116505,49.4126214 36.2116505,51.8660194 C36.2116505,53.784466 36.5271845,55.0592233 37.1563107,55.6815534 C37.7864078,56.3029126 39.0718447,56.6174757 41.0019417,56.6174757 C43.1184466,56.6174757 44.4757282,56.3825243 45.0864078,55.9165049 C45.6970874,55.4456311 46,54.4067961 46,52.7834951 L45.9737864,50.5533981 Z" id="Shape" fill="#56E0EA"></path>
        <path d="M59.7708738,66.015534 L59.7708738,0 L7.03300971,0 C3.29320388,0 0.233009709,3.06019417 0.233009709,6.8 L0.233009709,72.815534 L52.9708738,72.815534 C56.7067961,72.815534 59.7708738,69.7553398 59.7708738,66.015534 L59.7708738,66.015534 Z M1.37087379,39.0970874 L58.6330097,39.0970874 L58.6330097,62.7650485 L1.37087379,62.7650485 L1.37087379,39.0970874 Z M58.6330097,37.9592233 L1.37087379,37.9592233 L1.37087379,22.5126214 L22.7446602,1.13786408 L58.6330097,1.13786408 L58.6330097,37.9592233 Z M7.03300971,1.13786408 L21.1368932,1.13786408 L1.37087379,20.9038835 L1.37087379,6.8 C1.37087379,3.67864078 3.90776699,1.13786408 7.03300971,1.13786408 L7.03300971,1.13786408 Z M1.37087379,63.9029126 L58.6330097,63.9029126 L58.6330097,66.0116505 C58.6330097,69.1368932 56.092233,71.6737864 52.9708738,71.6737864 L1.37087379,71.6737864 L1.37087379,63.9029126 Z" id="Shape" fill="#56E0EA"></path>
    </g>
</svg>
