<?xml version="1.0" encoding="utf-8"?>
<!-- Generator: Adobe Illustrator 19.2.1, SVG Export Plug-In . SVG Version: 6.00 Build 0)  -->
<svg version="1.1"
	 id="Layer_1" xmlns:cc="http://creativecommons.org/ns#" xmlns:dc="http://purl.org/dc/elements/1.1/" xmlns:inkscape="http://www.inkscape.org/namespaces/inkscape" xmlns:rdf="http://www.w3.org/1999/02/22-rdf-syntax-ns#" xmlns:sodipodi="http://sodipodi.sourceforge.net/DTD/sodipodi-0.dtd" xmlns:svg="http://www.w3.org/2000/svg"
	 xmlns="http://www.w3.org/2000/svg" xmlns:xlink="http://www.w3.org/1999/xlink" x="0px" y="0px" viewBox="0 0 122.5 122.5"
	 style="enable-background:new 0 0 122.5 122.5;" xml:space="preserve">
<style type="text/css">
	.st0{fill:#FFFFFF;stroke:#FFFFFF;stroke-miterlimit:10;}
	.st1{fill:none;stroke:#FFFFFF;stroke-width:3;stroke-miterlimit:10;}
</style>
<g transform="translate(0,-952.36218)">
	<path class="st0" d="M51.3,1011.4l4.1,4.2c2.2,2.2,5.7,2.2,7.9,0c0,0,0.1,0,0.1-0.1c0.3-0.3,0.3-0.9-0.1-1.2
		c-0.3-0.3-0.9-0.3-1.2,0.1c-1.6,1.6-4,1.6-5.6,0l-4.1-4.2c-1.6-1.6-1.6-4.1,0-5.7c1.6-1.6,4-1.6,5.6,0l3.9,3.9
		c0.3,0.3,0.8,0.3,1.2,0c0.3-0.3,0.3-0.9,0-1.2l-3.9-3.9c-2.2-2.2-5.7-2.2-7.9,0c-1.1,1.1-1.6,2.5-1.6,4S50.2,1010.3,51.3,1011.4z
		 M58.9,1012.2c0,0.2,0.1,0.5,0.2,0.6c0.3,0.3,0.8,0.3,1.2,0c1.6-1.6,4-1.6,5.6,0l4.1,4.2c1.6,1.6,1.6,4.1,0,5.7
		c-1.6,1.6-4,1.6-5.6,0l-3.9-3.9c0,0,0-0.1-0.1-0.1c-0.3-0.3-0.9-0.3-1.2,0.1c-0.3,0.3-0.3,0.9,0.1,1.2l3.9,3.9
		c2.2,2.2,5.7,2.2,7.9,0c2.2-2.2,2.2-5.8,0-8l-4.1-4.2c-2.2-2.2-5.7-2.2-7.9,0C59,1011.8,58.9,1012,58.9,1012.2L58.9,1012.2z"/>
</g>
<circle class="st1" cx="61.2" cy="61.2" r="59.7"/>
</svg>
