<?xml version="1.0" encoding="utf-8"?>
<!-- Generator: Adobe Illustrator 20.0.0, SVG Export Plug-In . SVG Version: 6.00 Build 0)  -->
<svg version="1.1" id="Layer_1" xmlns="http://www.w3.org/2000/svg" xmlns:xlink="http://www.w3.org/1999/xlink" x="0px" y="0px"
	 viewBox="0 0 35 35" style="enable-background:new 0 0 35 35;" xml:space="preserve">
<style type="text/css">
	.st0{fill:#B5B5BC;}
</style>
<g transform="translate(0,-952.36218)">
	<g>
		<path class="st0" d="M3.5,966.6l5.7,5.8c3,3,7.9,3,10.9,0c0,0,0.1,0,0.1-0.1c0.4-0.4,0.4-1.2-0.1-1.7c-0.4-0.4-1.2-0.4-1.7,0.1
			c-2.2,2.2-5.5,2.2-7.8,0L5,964.9c-2.2-2.2-2.2-5.7,0-7.9s5.5-2.2,7.8,0l5.4,5.4c0.4,0.4,1.1,0.4,1.7,0c0.4-0.4,0.4-1.2,0-1.7
			l-5.4-5.4c-3-3-7.9-3-10.9,0c-1.5,1.5-2.2,3.5-2.2,5.5S2,965,3.5,966.6z M14,967.7c0,0.3,0.1,0.7,0.3,0.8c0.4,0.4,1.1,0.4,1.7,0
			c2.2-2.2,5.5-2.2,7.8,0l5.7,5.8c2.2,2.2,2.2,5.7,0,7.9c-2.2,2.2-5.5,2.2-7.8,0l-5.4-5.4c0,0,0-0.1-0.1-0.1
			c-0.4-0.4-1.2-0.4-1.7,0.1c-0.4,0.4-0.4,1.2,0.1,1.7l5.4,5.4c3,3,7.9,3,10.9,0c3-3,3-8,0-11.1l-5.7-5.8c-3-3-7.9-3-10.9,0
			C14.1,967.1,14,967.4,14,967.7L14,967.7z"/>
		<path class="st0" d="M25.9,987.4c-2.1,0-4.3-0.8-5.9-2.5l-5.5-5.5c-0.3-0.2-0.6-0.7-0.6-1.2c0-0.5,0.1-0.9,0.4-1.3
			c0.2-0.3,0.7-0.6,1.2-0.6c0.4,0,0.8,0.1,1.1,0.3c0.2,0.1,0.3,0.2,0.4,0.3l5.4,5.4c1,1,2.3,1.5,3.6,1.5s2.6-0.5,3.6-1.5
			c1-1,1.5-2.3,1.5-3.7s-0.5-2.7-1.5-3.7l-5.8-5.9c-2-2-5.1-2-7.2,0c-0.8,0.6-1.8,0.6-2.4,0c-0.3-0.3-0.4-0.8-0.4-1.2
			c0-0.5,0.2-0.9,0.4-1.1c3.3-3.3,8.6-3.3,11.9,0l5.8,5.9c3.3,3.3,3.3,8.7,0,12C30.2,986.5,28.1,987.4,25.9,987.4z M14.9,975.6
			c-2.1,0-4.3-0.8-5.9-2.5l-5.8-5.9c-1.6-1.6-2.4-3.7-2.4-6.2c0-2.4,0.8-4.4,2.4-6c3.3-3.3,8.6-3.3,11.9,0l5.5,5.5
			c0.3,0.3,0.5,0.7,0.5,1.2c0,0.5-0.2,0.9-0.5,1.2c-0.8,0.6-1.8,0.6-2.4,0l-5.5-5.5c-2.1-2-5.1-2-7.2,0c-2.1,2.1-2.1,5.3,0,7.3
			l5.8,5.9c2,2,5.1,2,7.2,0c0.2-0.3,0.7-0.6,1.2-0.6c0.5,0,0.9,0.1,1.3,0.4c0.3,0.2,0.6,0.7,0.6,1.2c0,0.4-0.1,0.8-0.3,1.1
			c-0.1,0.2-0.2,0.3-0.3,0.4C19.1,974.8,17,975.6,14.9,975.6z"/>
	</g>
</g>
</svg>
