<svg width="24" height="25" viewBox="0 0 24 25" xmlns="http://www.w3.org/2000/svg"><title>Page 1</title><path d="M23.333 20.642l-4.756-4.05c1.32-1.74 2.115-3.9 2.115-6.246C20.692 4.642 16.052 0 10.346 0S0 4.642 0 10.346c0 5.705 4.64 10.348 10.346 10.348 2.21 0 4.255-.702 5.938-1.888l3.824 5.043c.413.416.984.674 1.616.674 1.258 0 2.276-1.018 2.276-2.275-.002-.628-.257-1.197-.667-1.608zm-12.987-2.725c-4.173 0-7.57-3.396-7.57-7.57 0-4.172 3.397-7.568 7.57-7.568s7.57 3.393 7.57 7.568c0 4.173-3.395 7.57-7.57 7.57z" fill="#FFF" fill-rule="evenodd"/></svg>