<svg width="86" height="22" viewBox="0 0 86 22" xmlns="http://www.w3.org/2000/svg" xmlns:xlink="http://www.w3.org/1999/xlink"><title>Logo</title><defs><path id="a" d="M6.39 7.032L10.035 0h2.74L7.644 9.435v5.978h-2.53V9.52L0 0h2.74z"/><linearGradient x1=".258%" y1="49.75%" x2="101.258%" y2="49.75%" id="b"><stop stop-color="#56E0EA" offset="0%"/><stop stop-color="#53A0FE" offset="47.525%"/><stop stop-color="#F229E8" offset="100%"/></linearGradient><path id="d" d="M8.718 15.413H0V0h8.718v2.13H2.52v4.195h5.808v2.11H2.52v4.838h6.198z"/><linearGradient x1="17.372%" y1="100%" x2="85.296%" y2="25.172%" id="g"><stop stop-color="#56E0EA" offset="0%"/><stop stop-color="#53A0FE" offset="47.525%"/><stop stop-color="#F229E8" offset="100%"/></linearGradient><path id="f" d="M15.18 4.7l10.844 7.877-4.142 12.747H8.48L4.336 12.577z"/></defs><g fill="none" fill-rule="evenodd"><path d="M10.816 2.952h2.615L8.034 18.364H5.377L0 2.952h2.593l3.216 9.583c.167.456.347 1.045.536 1.765.19.72.313 1.257.37 1.608.09-.534.23-1.152.42-1.855.19-.703.345-1.223.465-1.56l3.216-9.54zM37.23 10.12h1.75c1.175 0 2.026-.217 2.553-.653.527-.436.79-1.082.79-1.94 0-.87-.284-1.497-.854-1.876-.57-.38-1.427-.57-2.573-.57H37.23v5.04zm0 2.088v6.156h-2.518V2.952h4.354c1.99 0 3.46.372 4.417 1.117.956.744 1.434 1.87 1.434 3.373 0 1.918-.998 3.285-2.994 4.1l4.354 6.82H43.41l-3.69-6.155h-2.49z" fill="#FFF"/><g transform="translate(50.24 2.59)"><mask id="c" fill="#fff"><use xlink:href="#a"/></mask><use fill="#000" xlink:href="#a"/><path fill="url(#b)" mask="url(#c)" d="M-32.53-4.7h68.675v39.037H-32.53z"/></g><g transform="translate(19.157 2.59)"><mask id="e" fill="#fff"><use xlink:href="#d"/></mask><use fill="#000" xlink:href="#d"/><path fill="url(#b)" mask="url(#e)" d="M-1.807-4.7H67.23v39.037H-1.808z"/></g><g transform="translate(60.723 -5)"><mask id="h" fill="#fff"><use xlink:href="#f"/></mask><use fill="url(#g)" transform="rotate(47 15.18 15.01)" xlink:href="#f"/><path fill="url(#b)" mask="url(#h)" d="M-43.012 2.892h68.675v39.036h-68.675z"/></g><path d="M74.69 8.11v.547l-.8.15c.074.097.134.22.182.363.048.144.072.296.072.457 0 .483-.166.863-.5 1.14-.333.276-.79.415-1.376.415-.15 0-.285-.012-.407-.034-.213.133-.32.288-.32.466 0 .107.05.188.15.24.1.055.284.082.553.082h.817c.517 0 .91.11 1.178.33.268.22.402.538.402.953 0 .53-.22.94-.657 1.227-.437.29-1.07.433-1.897.433-.638 0-1.125-.113-1.46-.34-.338-.225-.506-.547-.506-.965 0-.288.092-.53.274-.726.182-.198.437-.334.764-.41-.132-.057-.242-.148-.328-.273-.086-.126-.13-.258-.13-.396 0-.175.05-.323.15-.444.098-.122.245-.242.44-.36-.243-.105-.44-.275-.59-.51-.152-.236-.228-.512-.228-.83 0-.507.16-.9.48-1.18.32-.28.778-.42 1.37-.42.134 0 .273.01.418.028.146.018.255.037.33.057h1.62zm-3.68 5.414c0 .215.097.38.29.496.194.115.465.173.815.173.543 0 .946-.077 1.212-.233.265-.155.398-.36.398-.618 0-.203-.073-.348-.218-.434-.146-.086-.416-.13-.81-.13h-.755c-.285 0-.512.068-.68.202-.168.134-.252.315-.252.544zm.428-3.897c0 .294.075.52.226.678.15.158.368.237.65.237.577 0 .865-.308.865-.923 0-.306-.073-.54-.215-.706-.143-.166-.36-.248-.65-.248-.288 0-.507.082-.655.245-.148.165-.222.404-.222.717zm6.424 3.253c-.585 0-1.04-.212-1.368-.635-.328-.424-.492-1.018-.492-1.783 0-.768.166-1.366.498-1.794.332-.428.792-.642 1.38-.642.614 0 1.083.227 1.405.682h.05c-.047-.336-.07-.6-.07-.796V6.205h1v6.59h-.78l-.174-.614h-.046c-.32.467-.786.7-1.402.7zm.267-.805c.408 0 .706-.115.892-.345.187-.23.283-.603.29-1.12v-.14c0-.59-.097-1.01-.29-1.258-.192-.248-.492-.373-.902-.373-.35 0-.62.14-.81.425-.188.284-.283.688-.283 1.214 0 .518.092.914.276 1.187.183.272.46.408.826.408z" fill="#FFF"/></g></svg>