<?xml version="1.0" encoding="utf-8"?>
<!-- Generator: Adobe Illustrator 20.0.0, SVG Export Plug-In . SVG Version: 6.00 Build 0)  -->
<svg version="1.1" id="Layer_1" xmlns="http://www.w3.org/2000/svg" xmlns:xlink="http://www.w3.org/1999/xlink" x="0px" y="0px"
	 viewBox="0 0 116 18" style="enable-background:new 0 0 116 18;" xml:space="preserve">
<style type="text/css">
	.st0{fill:url(#Combined-Shape_1_);}
</style>
<desc>Created with Sketch.</desc>
<g id="Group-3" transform="translate(60.000000, 35.000000)">
	<g id="Group">
		
			<linearGradient id="Combined-Shape_1_" gradientUnits="userSpaceOnUse" x1="-26.491" y1="-0.9785" x2="-27.491" y2="-1.9785" gradientTransform="matrix(28.5971 0 0 18 727.1366 0)">
			<stop  offset="0" style="stop-color:#56E0EA"/>
			<stop  offset="0.4752" style="stop-color:#53A0FE"/>
			<stop  offset="1" style="stop-color:#F229E8"/>
		</linearGradient>
		<path id="Combined-Shape" class="st0" d="M-39.8-19.5l8.4-6.2l-3.4-9.4h-9.8l-3.4,9.4L-39.8-19.5z M-60-35l6.5,17.6L-47-35H-60z
			 M-47.7-17c1.6,0,2.9-1.3,2.9-2.9s-1.3-2.9-2.9-2.9s-2.9,1.3-2.9,2.9S-49.3-17-47.7-17z"/>
	</g>
	<g id="Group-2" transform="translate(33.365854, 0.000000)">
		<path id="_x2E_gd" d="M-1.1-22.5c0-0.6,0.2-0.9,0.7-0.9s0.7,0.3,0.7,0.9s-0.2,0.9-0.7,0.9C-0.8-21.6-1.1-21.9-1.1-22.5L-1.1-22.5z
			 M11.1-31.5v0.6l-2,0.1c0.5,0.7,0.8,1.4,0.8,2.2c0,0.9-0.3,1.7-0.9,2.3c-0.6,0.6-1.5,0.9-2.5,0.9c-0.4,0-0.8,0-0.9-0.1
			c-0.4,0.2-0.6,0.4-0.8,0.7c-0.2,0.3-0.3,0.5-0.3,0.8s0.1,0.5,0.4,0.7s0.6,0.2,1.2,0.2h1.7c1.1,0,1.9,0.2,2.4,0.6
			c0.6,0.4,0.8,1.1,0.8,1.9c0,1-0.4,1.8-1.3,2.4c-0.8,0.6-2,0.8-3.6,0.8c-1.2,0-2.2-0.2-2.9-0.7s-1-1.1-1-2c0-0.7,0.2-1.2,0.6-1.7
			s1-0.7,1.7-0.9C4.2-22.8,4-23,3.8-23.2c-0.2-0.2-0.3-0.5-0.3-0.8c0-0.7,0.4-1.2,1.3-1.7c-0.6-0.2-1-0.6-1.3-1.1S3-27.9,3-28.5
			c0-1,0.3-1.8,0.9-2.4s1.5-0.9,2.5-0.9c0.6,0,1.1,0.1,1.5,0.2h3.2V-31.5z M3.2-20.1c0,1.3,1,2,3,2c2.6,0,3.9-0.8,3.9-2.5
			c0-0.6-0.2-1-0.6-1.3c-0.4-0.3-1.1-0.4-2-0.4H5.9C4.1-22.2,3.2-21.5,3.2-20.1L3.2-20.1z M4-28.5c0,0.8,0.2,1.3,0.7,1.8
			c0.5,0.4,1.1,0.6,1.8,0.6c0.8,0,1.4-0.2,1.9-0.6c0.4-0.4,0.7-1,0.7-1.8S8.9-30,8.4-30.4C7.9-30.8,7.3-31,6.5-31s-1.4,0.2-1.8,0.7
			C4.2-29.9,4-29.3,4-28.5L4-28.5z M19.4-31.3c0.5,0.3,1,0.7,1.4,1.3h0.1c0-0.8-0.1-1.5-0.1-2.2V-35h0.9v13.3h-0.6l-0.2-1.5h-0.1
			c-0.7,1.1-1.8,1.7-3.2,1.7c-1.4,0-2.4-0.4-3.1-1.3c-0.7-0.8-1.1-2.1-1.1-3.7c0-1.7,0.4-3,1.1-3.9c0.7-0.9,1.7-1.3,3.1-1.3
			C18.3-31.7,18.9-31.6,19.4-31.3z M17.6-30.9c-1.1,0-1.9,0.4-2.4,1.1c-0.5,0.8-0.8,1.8-0.8,3.3c0,2.8,1.1,4.2,3.2,4.2
			c1.1,0,1.9-0.3,2.4-1c0.5-0.6,0.8-1.7,0.8-3.2v-0.2c0-1.5-0.3-2.6-0.8-3.3S18.7-30.9,17.6-30.9L17.6-30.9z"/>
		<path id="VERY" d="M-49.5-35h3.2l-5.1,13.3h-3.5l-5-13.3h3.2l2.8,7.9c0.2,0.5,0.3,1,0.5,1.6s0.3,1.1,0.3,1.3
			c0.1-0.6,0.3-1.5,0.8-2.9L-49.5-35z M-33.9-21.7h-8.7V-35h8.7v2.3h-5.5v2.9h5.1v2.3h-5.1v3.4h5.5V-21.7z M-25.8-29.1h1
			c1,0,1.8-0.1,2.2-0.4c0.5-0.3,0.7-0.8,0.7-1.4s-0.2-1.1-0.7-1.3c-0.5-0.3-1.3-0.4-2.3-0.4h-1L-25.8-29.1L-25.8-29.1z M-25.8-26.8
			v5.1H-29V-35h4.4c2,0,3.6,0.3,4.5,1s1.5,1.7,1.5,3c0,0.8-0.2,1.5-0.7,2.1s-1.2,1.1-2.1,1.4c2.3,3,3.7,4.9,4.4,5.8h-3.5l-3.6-5.1
			C-24.1-26.8-25.8-26.8-25.8-26.8z M-8.7-29.5l3.1-5.5h3.4l-5,8.1v5.2h-3.2v-5.1l-5-8.2h3.5L-8.7-29.5z"/>
	</g>
</g>
</svg>
