<?xml version="1.0" encoding="utf-8"?>
<!-- Generator: Adobe Illustrator 20.0.0, SVG Export Plug-In . SVG Version: 6.00 Build 0)  -->
<svg version="1.1" id="Layer_1" xmlns="http://www.w3.org/2000/svg" xmlns:xlink="http://www.w3.org/1999/xlink" x="0px" y="0px"
	 viewBox="0 0 116 18" style="enable-background:new 0 0 116 18;" xml:space="preserve">
<style type="text/css">
	.st0{fill:url(#Combined-Shape_1_);}
	.st1{fill:#FFFFFF;}
</style>
<desc>Created with Sketch.</desc>
<g id="Group-3" transform="translate(60.000000, 35.000000)">
	<g id="Group">
		
			<linearGradient id="Combined-Shape_1_" gradientUnits="userSpaceOnUse" x1="-13.7627" y1="-16.0228" x2="-14.7627" y2="-15.0228" gradientTransform="matrix(28.5971 0 0 -18 363.5685 -306)">
			<stop  offset="0" style="stop-color:#56E0EA"/>
			<stop  offset="0.4752" style="stop-color:#53A0FE"/>
			<stop  offset="1" style="stop-color:#F229E8"/>
		</linearGradient>
		<path id="Combined-Shape" class="st0" d="M-39.3-19.5l8.4-6.2l-3.4-9.4l-9.8,0l-3.4,9.4L-39.3-19.5z M-59.5-35l6.5,17.6l6.5-17.6
			H-59.5z M-47.3-17c1.6,0,2.9-1.3,2.9-2.9s-1.3-2.9-2.9-2.9s-2.9,1.3-2.9,2.9S-48.8-17-47.3-17z"/>
	</g>
	<g id="Group-2" transform="translate(33.365854, 0.000000)">
		<path id="_x2E_gd" class="st1" d="M-0.6-22.5c0-0.6,0.2-0.9,0.7-0.9c0.5,0,0.7,0.3,0.7,0.9c0,0.6-0.2,0.9-0.7,0.9
			C-0.4-21.6-0.6-21.9-0.6-22.5L-0.6-22.5z M11.6-31.5v0.6l-2,0.1c0.5,0.7,0.8,1.4,0.8,2.2c0,0.9-0.3,1.7-0.9,2.3
			c-0.6,0.6-1.5,0.9-2.5,0.9c-0.4,0-0.8,0-0.9-0.1c-0.4,0.2-0.6,0.4-0.8,0.7C5-24.6,4.9-24.3,4.9-24c0,0.3,0.1,0.5,0.4,0.7
			s0.6,0.2,1.2,0.2h1.7c1.1,0,1.9,0.2,2.4,0.6c0.6,0.4,0.8,1.1,0.8,1.9c0,1-0.4,1.8-1.3,2.4c-0.8,0.6-2,0.8-3.6,0.8
			c-1.2,0-2.2-0.2-2.9-0.7c-0.7-0.5-1-1.1-1-2c0-0.7,0.2-1.2,0.6-1.7s1-0.7,1.7-0.9c-0.3-0.1-0.5-0.3-0.7-0.5
			c-0.2-0.2-0.3-0.5-0.3-0.8c0-0.7,0.4-1.2,1.3-1.7c-0.6-0.2-1-0.6-1.3-1.1s-0.5-1.1-0.5-1.7c0-1,0.3-1.8,0.9-2.4s1.5-0.9,2.5-0.9
			c0.6,0,1.1,0.1,1.5,0.2H11.6z M3.7-20.1c0,1.3,1,2,3,2c2.6,0,3.9-0.8,3.9-2.5c0-0.6-0.2-1-0.6-1.3c-0.4-0.3-1.1-0.4-2-0.4H6.4
			C4.6-22.2,3.7-21.5,3.7-20.1L3.7-20.1z M4.4-28.5c0,0.8,0.2,1.3,0.7,1.8c0.5,0.4,1.1,0.6,1.8,0.6c0.8,0,1.4-0.2,1.9-0.6
			c0.4-0.4,0.7-1,0.7-1.8c0-0.8-0.2-1.5-0.7-1.9C8.4-30.8,7.7-31,6.9-31c-0.8,0-1.4,0.2-1.8,0.7C4.6-29.9,4.4-29.3,4.4-28.5
			L4.4-28.5z M19.9-31.3c0.5,0.3,1,0.7,1.4,1.3h0.1c0-0.8-0.1-1.5-0.1-2.2V-35h0.9v13.3h-0.6l-0.2-1.5h-0.1
			c-0.7,1.1-1.8,1.7-3.2,1.7c-1.4,0-2.4-0.4-3.1-1.3c-0.7-0.8-1.1-2.1-1.1-3.7c0-1.7,0.4-3,1.1-3.9c0.7-0.9,1.7-1.3,3.1-1.3
			C18.8-31.7,19.4-31.6,19.9-31.3z M18.1-30.9c-1.1,0-1.9,0.4-2.4,1.1c-0.5,0.8-0.8,1.8-0.8,3.3c0,2.8,1.1,4.2,3.2,4.2
			c1.1,0,1.9-0.3,2.4-1c0.5-0.6,0.8-1.7,0.8-3.2v-0.2c0-1.5-0.3-2.6-0.8-3.3S19.2-30.9,18.1-30.9L18.1-30.9z"/>
		<path id="VERY" class="st1" d="M-49-35h3.2l-5.1,13.3h-3.5L-59.5-35h3.2l2.8,7.9c0.2,0.5,0.3,1,0.5,1.6s0.3,1.1,0.3,1.3
			c0.1-0.6,0.3-1.5,0.8-2.9L-49-35z M-33.5-21.7h-8.7V-35h8.7v2.3h-5.5v2.9h5.1v2.3h-5.1v3.4h5.5V-21.7z M-25.4-29.1h1
			c1,0,1.8-0.1,2.2-0.4c0.5-0.3,0.7-0.8,0.7-1.4c0-0.6-0.2-1.1-0.7-1.3c-0.5-0.3-1.3-0.4-2.3-0.4h-1V-29.1z M-25.4-26.8v5.1h-3.2
			V-35h4.4c2,0,3.6,0.3,4.5,1s1.5,1.7,1.5,3c0,0.8-0.2,1.5-0.7,2.1c-0.5,0.6-1.2,1.1-2.1,1.4c2.3,3,3.7,4.9,4.4,5.8h-3.5l-3.6-5.1
			H-25.4z M-8.2-29.5l3.1-5.5l3.4,0l-5,8.1v5.2l-3.2,0v-5.1l-5-8.2h3.5L-8.2-29.5z"/>
	</g>
</g>
</svg>
