<svg class="vg-logo" width="206px" height="32px" viewBox="617 100 206 32" version="1.1" xmlns="http://www.w3.org/2000/svg" xmlns:xlink="http://www.w3.org/1999/xlink">
    <g id="Group-3" stroke="none" stroke-width="1" fill="none" fill-rule="evenodd" transform="translate(617.000000, 100.000000)">
        <g id="Group" fill="#FFFFFF">
            <path d="M35.9651281,27.6363636 L50.8393471,16.6307328 L44.7084218,0 L27.2218345,0.000764886465 L21.0909091,16.6307328 L35.9651281,27.6363636 Z M0,0 L11.6363636,31.2727273 L23.2727273,0 L0,0 Z M21.8181818,32 C24.6298133,32 26.9090909,29.7207224 26.9090909,26.9090909 C26.9090909,24.0974595 24.6298133,21.8181818 21.8181818,21.8181818 C19.0065504,21.8181818 16.7272727,24.0974595 16.7272727,26.9090909 C16.7272727,29.7207224 19.0065504,32 21.8181818,32 Z" id="Combined-Shape"></path>
        </g>
        <g id="Group-2" transform="translate(59.317073, 0.000000)" fill="#000000">
            <path d="M104.783537,22.3067716 C104.783537,21.2610347 105.210362,20.7381741 106.064024,20.7381741 C106.939029,20.7381741 107.376524,21.2610347 107.376524,22.3067716 C107.376524,23.3525086 106.939029,23.8753692 106.064024,23.8753692 C105.210362,23.8753692 104.783537,23.3525086 104.783537,22.3067716 L104.783537,22.3067716 Z M126.471799,6.15661919 L126.471799,7.26103992 L122.870427,7.48512529 C123.830797,8.68025321 124.310976,9.99274009 124.310976,11.4226253 C124.310976,13.0979385 123.753435,14.4557756 122.638338,15.4961771 C121.523241,16.5365787 120.026686,17.0567716 118.148628,17.0567716 C117.35899,17.0567716 116.804117,17.0247598 116.483994,16.960735 C115.854418,17.2915294 115.374239,17.6810072 115.043445,18.1291802 C114.712651,18.5773531 114.547256,19.0521959 114.547256,19.5537228 C114.547256,20.1086037 114.758001,20.5140874 115.179497,20.7701863 C115.600993,21.0262851 116.307922,21.1543326 117.300305,21.1543326 L120.341463,21.1543326 C122.230192,21.1543326 123.676062,21.5358074 124.679116,22.2987686 C125.68217,23.0617297 126.183689,24.1901483 126.183689,25.6840582 C126.183689,27.5194332 125.439413,28.9359587 123.950838,29.9336771 C122.462264,30.9313955 120.341477,31.4302472 117.588415,31.4302472 C115.400904,31.4302472 113.706942,31.0087575 112.506479,30.1657655 C111.306015,29.3227735 110.705793,28.1490048 110.705793,26.6444241 C110.705793,25.4492961 111.076597,24.456928 111.818216,23.6672899 C112.559836,22.8776518 113.565542,22.3387853 114.835366,22.0506741 C114.312497,21.8265876 113.893675,21.5091365 113.578887,21.0983113 C113.264099,20.687486 113.106707,20.2153109 113.106707,19.6817716 C113.106707,18.5186561 113.848316,17.4942761 115.331555,16.6086009 C114.31783,16.1924403 113.528204,15.5388645 112.962652,14.6478539 C112.397101,13.7568434 112.114329,12.735131 112.114329,11.5826863 C112.114329,9.8433483 112.666534,8.44816408 113.77096,7.39709175 C114.875387,6.34601942 116.366606,5.82049114 118.244665,5.82049114 C119.386439,5.82049114 120.272101,5.9325327 120.901677,6.15661919 L126.471799,6.15661919 Z M112.386433,26.5003692 C112.386433,28.890625 114.163092,30.085735 117.716463,30.085735 C122.283559,30.085735 124.567073,28.6291947 124.567073,25.7160704 C124.567073,24.6703335 124.209607,23.9127191 123.494665,23.4432046 C122.779722,22.97369 121.621959,22.7389363 120.021341,22.7389363 L117.172256,22.7389363 C113.981691,22.7389363 112.386433,23.9927347 112.386433,26.5003692 L112.386433,26.5003692 Z M113.714939,11.5826863 C113.714939,12.9272052 114.12309,13.9702588 114.939405,14.7118783 C115.755721,15.4534979 116.846792,15.8243021 118.212652,15.8243021 C119.663879,15.8243021 120.776292,15.4561656 121.549924,14.7198814 C122.323556,13.9835972 122.710366,12.9165347 122.710366,11.5186619 C122.710366,10.0354227 122.312885,8.92301009 121.517912,8.18139053 C120.722938,7.43977097 119.610525,7.06896675 118.18064,7.06896675 C116.793438,7.06896675 115.702367,7.46644753 114.907393,8.26142102 C114.11242,9.0563945 113.714939,10.1634718 113.714939,11.5826863 L113.714939,11.5826863 Z M141.237805,6.50875333 C142.155492,6.96759709 142.977131,7.75188803 143.702744,8.86164968 L143.79878,8.86164968 C143.734756,7.51713076 143.702744,6.19930857 143.702744,4.90814358 L143.702744,0 L145.271341,0 L145.271341,23.6253692 L144.230945,23.6253692 L143.830793,20.898235 L143.702744,20.898235 C142.379567,22.8830011 140.480195,23.8753692 138.004573,23.8753692 C135.603647,23.8753692 133.768299,23.1284254 132.498476,21.6345155 C131.228652,20.1406056 130.59375,17.9637981 130.59375,15.1040277 C130.59375,12.0948663 131.223317,9.79534665 132.48247,8.20539968 C133.741622,6.6154527 135.571634,5.82049114 137.972561,5.82049114 C139.231714,5.82049114 140.320117,6.04990958 141.237805,6.50875333 Z M137.972561,7.26103992 C136.073161,7.26103992 134.645965,7.92795398 133.69093,9.26180212 C132.735895,10.5956502 132.258384,12.5323687 132.258384,15.0720155 C132.258384,20.0019182 134.173761,22.4668326 138.004573,22.4668326 C139.967998,22.4668326 141.408532,21.8959542 142.32622,20.7541802 C143.243907,19.6124062 143.702744,17.7290408 143.702744,15.1040277 L143.702744,14.8319241 C143.702744,12.1428862 143.25191,10.2088354 142.350229,9.0297137 C141.448547,7.85059195 139.989339,7.26103992 137.972561,7.26103992 L137.972561,7.26103992 Z" id=".gd"></path>
            <path d="M18.7317073,0.00341747433 L24.4573171,0.00341747433 L15.3658537,23.6253662 L9.18292683,23.6253662 L0.109756098,0.00341747433 L5.83536585,0.00341747433 L10.8658537,14.0602543 C11.1463429,14.8896656 11.4359741,15.8564001 11.7347561,16.9604867 C12.0335381,18.0645733 12.2195118,18.8320366 12.2926829,19.2628996 C12.4268299,18.2719146 12.8841424,16.5377168 13.6646341,14.0602543 L18.7317073,0.00341747433 Z M46.347561,23.6253662 L30.945122,23.6253662 L30.945122,0.00341747433 L46.347561,0.00341747433 L46.347561,4.10736753 L36.6158537,4.10736753 L36.6158537,9.29385559 L45.6707317,9.29385559 L45.6707317,13.3978056 L36.6158537,13.3978056 L36.6158537,19.4891016 L46.347561,19.4891016 L46.347561,23.6253662 Z M60.7195122,10.4894946 L62.5487805,10.4894946 C64.3414724,10.4894946 65.6646299,10.2255949 66.5182927,9.69778768 C67.3719555,9.16998044 67.7987805,8.34058151 67.7987805,7.20956599 C67.7987805,6.08932206 67.3628092,5.29223737 66.4908537,4.81828801 C65.6188981,4.34433865 64.2683018,4.10736753 62.4390244,4.10736753 L60.7195122,4.10736753 L60.7195122,10.4894946 Z M60.7195122,14.5611301 L60.7195122,23.6253662 L55.0487805,23.6253662 L55.0487805,0.00341747433 L62.8414634,0.00341747433 C66.4756279,0.00341747433 69.1646254,0.587766724 70.9085366,1.75648275 C72.6524477,2.92519878 73.5243902,4.69978936 73.5243902,7.08030773 C73.5243902,8.46984107 73.0914677,9.70586091 72.2256098,10.7884043 C71.3597518,11.8709477 70.1341543,12.7191967 68.5487805,13.3331765 C72.5731909,18.6435636 75.1951159,22.0742592 76.4146341,23.6253662 L70.1219512,23.6253662 L63.7378049,14.5611301 L60.7195122,14.5611301 Z M91.2256098,9.73010225 L96.804878,0 L102.914634,0.00341747433 L94.0426829,14.4318718 L94.0426829,23.6253662 L88.4085366,23.6219517 L88.4085366,14.5934446 L79.5365854,0.00341747433 L85.6829268,0.00341747433 L91.2256098,9.73010225 Z" id="VERY"></path>
        </g>
    </g>
</svg>
